<?xml version="1.0" standalone="no"?>
<!DOCTYPE svg PUBLIC "-//W3C//DTD SVG 20010904//EN"
 "http://www.w3.org/TR/2001/REC-SVG-20010904/DTD/svg10.dtd">
<svg version="1.0" xmlns="http://www.w3.org/2000/svg"
 width="40" height="30" viewBox="0 0 512.000000 512.000000"
 preserveAspectRatio="xMidYMid meet">

<g transform="translate(0.000000,512.000000) scale(0.100000,-0.100000)"
fill="#181572" stroke="none">
<path d="M196 4814 c-36 -11 -65 -31 -107 -73 -97 -97 -89 59 -89 -1731 0
-1368 2 -1573 15 -1617 19 -64 88 -143 153 -175 l47 -23 946 -5 945 -5 -91
-375 -91 -375 -249 -3 c-239 -2 -250 -3 -272 -24 -30 -28 -29 -68 0 -96 l23
-22 1135 0 1136 0 21 23 c28 30 28 68 -1 95 -22 21 -33 22 -272 24 l-249 3
-91 375 -92 375 946 5 946 5 47 23 c65 32 134 111 153 175 13 44 15 249 15
1617 0 1790 8 1634 -89 1731 -99 98 155 89 -2475 88 -2029 0 -2317 -2 -2360
-15z m4705 -147 c18 -12 44 -38 56 -56 l23 -34 0 -1343 0 -1344 -2420 0 -2420
0 0 1344 0 1343 23 34 c12 18 38 44 56 56 l34 23 2307 0 2307 0 34 -23z m77
-3076 c-3 -177 -8 -191 -78 -238 l-33 -23 -2307 0 -2307 0 -34 23 c-18 12 -44
38 -56 56 -21 32 -23 44 -23 187 l0 154 2421 0 2420 0 -3 -159z m-2109 -438
c6 -21 46 -184 91 -363 44 -179 83 -333 86 -342 5 -17 -23 -18 -486 -18 -463
0 -491 1 -486 18 3 9 42 163 86 342 45 179 85 342 91 363 l10 37 299 0 299 0
10 -37z"/>
<path d="M452 4467 c-21 -23 -22 -30 -22 -288 0 -265 0 -266 23 -287 23 -21
30 -22 288 -22 265 0 266 0 287 23 21 23 22 30 22 288 0 265 0 266 -23 287
-23 21 -30 22 -288 22 -265 0 -266 0 -287 -23z m458 -287 l0 -170 -170 0 -170
0 0 170 0 170 170 0 170 0 0 -170z"/>
<path d="M1322 4467 c-28 -30 -28 -68 1 -95 23 -22 26 -22 438 -22 l416 0 21
23 c28 30 28 68 -1 95 -23 22 -26 22 -438 22 l-416 0 -21 -23z"/>
<path d="M1322 3987 c-28 -30 -28 -68 1 -95 l23 -22 805 0 806 0 21 23 c28 30
28 68 -1 95 l-23 22 -805 0 -806 0 -21 -23z"/>
<path d="M452 3577 c-21 -23 -22 -30 -22 -288 0 -265 0 -266 23 -287 23 -21
30 -22 288 -22 265 0 266 0 287 23 21 23 22 30 22 288 0 265 0 266 -23 287
-23 21 -30 22 -288 22 -265 0 -266 0 -287 -23z m458 -287 l0 -170 -170 0 -170
0 0 170 0 170 170 0 170 0 0 -170z"/>
<path d="M1322 3577 c-28 -30 -28 -68 1 -95 23 -22 26 -22 438 -22 l416 0 21
23 c28 30 28 68 -1 95 -23 22 -26 22 -438 22 l-416 0 -21 -23z"/>
<path d="M3359 3504 l-24 -25 80 -476 c84 -509 85 -513 141 -513 21 0 52 25
133 104 l106 104 290 -289 c159 -160 300 -292 312 -295 12 -3 29 -2 38 4 9 5
86 78 171 163 129 129 154 158 154 183 0 25 -41 71 -292 323 l-293 294 95 93
c52 52 98 103 103 114 13 30 0 71 -26 82 -22 10 -910 160 -945 160 -10 0 -29
-11 -43 -26z m471 -189 c151 -25 286 -48 299 -51 22 -5 18 -10 -53 -83 -72
-75 -86 -100 -68 -129 5 -7 137 -142 294 -301 l286 -288 -89 -89 -89 -89 -283
282 c-155 154 -292 286 -304 292 -39 20 -54 12 -134 -65 -73 -71 -78 -75 -83
-53 -3 13 -26 148 -51 299 -25 151 -48 288 -51 304 -6 26 -4 28 22 22 16 -3
153 -26 304 -51z"/>
<path d="M1322 3097 c-28 -30 -28 -68 1 -95 l23 -22 805 0 806 0 21 23 c28 30
28 68 -1 95 l-23 22 -805 0 -806 0 -21 -23z"/>
<path d="M452 2687 c-21 -23 -22 -30 -22 -288 0 -265 0 -266 23 -287 23 -21
30 -22 288 -22 265 0 266 0 287 23 21 23 22 30 22 288 0 265 0 266 -23 287
-23 21 -30 22 -288 22 -265 0 -266 0 -287 -23z m458 -287 l0 -170 -170 0 -170
0 0 170 0 170 170 0 170 0 0 -170z"/>
<path d="M1322 2687 c-28 -30 -28 -68 1 -95 23 -22 26 -22 438 -22 l416 0 21
23 c28 30 28 68 -1 95 -23 22 -26 22 -438 22 l-416 0 -21 -23z"/>
<path d="M1322 2207 c-28 -30 -28 -68 1 -95 l23 -22 805 0 806 0 21 23 c28 30
28 68 -1 95 l-23 22 -805 0 -806 0 -21 -23z"/>
<path d="M2442 1587 c-28 -30 -28 -68 1 -95 21 -19 35 -22 118 -22 87 0 97 2
117 23 28 30 28 68 -1 95 -21 19 -35 22 -118 22 -87 0 -97 -2 -117 -23z"/>
</g>
</svg>
