<?xml version="1.0" standalone="no"?>
<!DOCTYPE svg PUBLIC "-//W3C//DTD SVG 20010904//EN"
 "http://www.w3.org/TR/2001/REC-SVG-20010904/DTD/svg10.dtd">
<svg version="1.0" xmlns="http://www.w3.org/2000/svg"
 width="40" height="30" viewBox="0 0 512.000000 512.000000"
 preserveAspectRatio="xMidYMid meet">

<g transform="translate(0.000000,512.000000) scale(0.100000,-0.100000)"
fill="#181572" stroke="none">
<path d="M2015 5109 c-246 -44 -468 -175 -610 -359 -125 -162 -188 -338 -202
-565 l-6 -105 -123 0 c-133 0 -165 -8 -183 -47 -8 -17 -11 -241 -11 -758 l0
-734 24 -28 c24 -28 25 -28 160 -31 l136 -4 0 -404 c0 -223 5 -448 11 -501 45
-406 341 -737 739 -827 460 -104 938 154 1104 597 55 148 58 176 63 675 l5
462 84 0 84 0 0 -1219 0 -1220 26 -20 c46 -36 93 -22 114 33 7 18 10 421 10
1227 l0 1199 165 0 165 0 0 -178 c0 -174 1 -179 23 -200 29 -27 67 -28 98 -3
23 19 24 24 27 200 l3 181 165 0 164 0 0 -1215 0 -1216 25 -24 c29 -30 64 -32
96 -6 l24 19 3 1221 2 1221 313 0 c176 0 328 4 348 10 23 6 40 19 47 36 9 18
12 250 12 868 0 926 0 933 -60 1099 -91 251 -316 476 -567 567 -170 61 -149
60 -1342 59 -597 -1 -1108 -5 -1136 -10z m290 -154 c206 -44 353 -132 477
-285 111 -136 169 -292 183 -487 l7 -103 -812 0 -813 0 7 105 c12 187 63 332
167 469 179 236 503 360 784 301z m2060 -9 c243 -73 429 -229 529 -448 74
-159 70 -100 73 -1025 l4 -833 -925 0 -925 0 -4 823 c-4 791 -4 825 -24 908
-54 218 -170 404 -330 530 -37 29 -72 56 -78 61 -5 5 350 7 805 5 749 -3 820
-4 875 -21z m-1585 -1030 c-28 -27 -770 -536 -781 -536 -9 0 -701 473 -778
532 -23 17 1 18 775 18 681 0 796 -2 784 -14z m-1325 -349 c110 -76 199 -141
198 -143 -2 -8 -577 -625 -602 -648 l-21 -19 0 552 0 552 113 -78 c61 -43 202
-140 312 -216z m1515 -263 c0 -300 -4 -544 -8 -542 -5 2 -134 138 -287 303
-153 165 -291 314 -307 331 l-29 31 307 211 c169 117 311 212 316 212 4 0 8
-246 8 -546z m-970 -94 c16 0 62 24 121 65 74 51 96 62 106 52 6 -6 151 -163
322 -347 l310 -335 -429 -3 c-237 -1 -624 -1 -861 0 l-431 3 322 347 322 347
96 -64 c58 -40 105 -65 122 -65z m968 -1187 c-5 -522 -7 -538 -93 -708 -79
-158 -198 -276 -360 -355 -163 -81 -318 -105 -484 -76 -324 57 -573 287 -658
611 -13 49 -17 141 -20 523 l-5 462 812 0 812 0 -4 -457z"/>
<path d="M3926 4704 c-60 -22 -101 -58 -130 -116 l-26 -52 0 -735 c0 -696 1
-738 19 -776 10 -22 34 -54 52 -72 57 -54 92 -63 246 -63 156 0 190 11 251 77
61 69 62 76 62 710 l0 573 68 0 c173 0 287 145 240 304 -16 55 -99 138 -154
154 -63 18 -576 15 -628 -4z m613 -159 c34 -34 37 -77 8 -111 -25 -28 -28 -29
-142 -34 -108 -5 -118 -7 -136 -29 -18 -22 -19 -48 -19 -643 0 -452 -3 -625
-12 -641 -22 -41 -39 -46 -156 -47 -107 0 -114 1 -137 25 l-25 24 0 713 c1
545 4 717 13 729 29 37 46 39 319 36 253 -2 269 -3 287 -22z"/>
<path d="M4054 3346 c-76 -33 -50 -136 35 -136 66 0 101 67 59 113 -30 33 -56
39 -94 23z"/>
<path d="M45 3989 c-49 -28 -58 -70 -24 -113 l20 -26 313 0 313 0 21 23 c27
29 28 67 3 98 l-19 24 -304 2 c-209 2 -309 -1 -323 -8z"/>
<path d="M209 3349 c-25 -9 -49 -45 -49 -73 0 -7 9 -25 21 -40 l20 -26 233 0
c230 0 233 0 254 23 39 41 25 97 -29 116 -39 14 -413 14 -450 0z"/>
<path d="M383 2713 c-27 -5 -63 -48 -63 -74 0 -10 11 -30 24 -46 23 -26 28
-28 130 -31 133 -5 191 3 216 31 37 39 22 98 -31 116 -30 10 -228 13 -276 4z"/>
<path d="M3796 1849 l-26 -20 0 -894 0 -894 26 -20 c43 -34 86 -26 109 20 13
24 15 153 15 893 0 613 -3 872 -11 889 -11 24 -47 47 -73 47 -7 0 -25 -9 -40
-21z"/>
</g>
</svg>
